G04 Layer_Physical_Order=2*
G04 Layer_Color=16711680*
%FSLAX44Y44*%
%MOMM*%
G71*
G01*
G75*
%ADD10R,2.4000X1.0000*%
%ADD11R,2.4000X3.3000*%
%ADD12R,1.5240X1.6510*%
%ADD13C,1.5000*%
%ADD14C,0.2540*%
%ADD15C,1.0000*%
%ADD16R,2.0015X2.0015*%
%ADD17O,1.6000X2.0000*%
%ADD18R,1.6000X2.0000*%
%ADD19C,2.2500*%
%ADD20C,1.8000*%
%ADD21R,2.2860X1.9050*%
%ADD22O,2.2860X1.9050*%
%ADD23C,1.6000*%
G36*
X1022899Y8341D02*
X8341D01*
Y710479D01*
X1022899D01*
Y8341D01*
D02*
G37*
%LPC*%
G36*
X156210Y99102D02*
X154467Y98873D01*
X151660Y97710D01*
X149250Y95860D01*
X147400Y93450D01*
X146237Y90642D01*
X146008Y88900D01*
X156210D01*
Y99102D01*
D02*
G37*
G36*
X118110Y276632D02*
Y264160D01*
X130582D01*
X130275Y266490D01*
X128885Y269844D01*
X126675Y272725D01*
X123794Y274935D01*
X120440Y276325D01*
X118110Y276632D01*
D02*
G37*
G36*
X947192Y261620D02*
X934720D01*
Y249148D01*
X937050Y249455D01*
X940405Y250844D01*
X943285Y253055D01*
X945496Y255935D01*
X946885Y259290D01*
X947192Y261620D01*
D02*
G37*
G36*
X115570Y276632D02*
X113240Y276325D01*
X109886Y274935D01*
X107005Y272725D01*
X104795Y269844D01*
X103405Y266490D01*
X103098Y264160D01*
X115570D01*
Y276632D01*
D02*
G37*
G36*
X934720D02*
Y264160D01*
X947192D01*
X946885Y266490D01*
X945496Y269844D01*
X943285Y272725D01*
X940405Y274935D01*
X937050Y276325D01*
X934720Y276632D01*
D02*
G37*
G36*
X796138Y406297D02*
X787400D01*
Y394970D01*
X798727D01*
Y403708D01*
X798530Y404699D01*
X797969Y405539D01*
X797129Y406100D01*
X796138Y406297D01*
D02*
G37*
G36*
X843280Y687725D02*
X93980D01*
X90195Y687227D01*
X86667Y685766D01*
X83638Y683441D01*
X44268Y644072D01*
X41944Y641043D01*
X40483Y637515D01*
X39985Y633730D01*
Y571151D01*
X39827Y570630D01*
X39537Y567690D01*
X39827Y564749D01*
X40685Y561922D01*
X42078Y559316D01*
X43952Y557032D01*
X46236Y555158D01*
X48842Y553765D01*
X50348Y553308D01*
X50415Y551961D01*
X49295Y551497D01*
X47093Y549807D01*
X45403Y547606D01*
X44341Y545042D01*
X44146Y543560D01*
X65074D01*
X64879Y545042D01*
X63817Y547606D01*
X62127Y549807D01*
X59925Y551497D01*
X58805Y551961D01*
X58872Y553308D01*
X60378Y553765D01*
X62984Y555158D01*
X65268Y557032D01*
X66655Y558722D01*
X67925Y558268D01*
Y524510D01*
X68423Y520725D01*
X69884Y517197D01*
X72208Y514169D01*
X95069Y491309D01*
X98097Y488984D01*
X101625Y487523D01*
X105410Y487025D01*
X157480D01*
X161265Y487523D01*
X164793Y488984D01*
X167822Y491309D01*
X183495Y506982D01*
X184765Y506456D01*
Y491490D01*
X185263Y487705D01*
X186724Y484177D01*
X189049Y481148D01*
X284298Y385899D01*
X287327Y383574D01*
X290855Y382113D01*
X294640Y381615D01*
X324546D01*
X324827Y381247D01*
X326290Y380126D01*
X327993Y379420D01*
X329820Y379180D01*
X345820D01*
X347647Y379420D01*
X349350Y380126D01*
X350812Y381247D01*
X351814Y382553D01*
X352129Y382736D01*
X353389Y382903D01*
X354846Y381708D01*
X357452Y380315D01*
X360280Y379457D01*
X363220Y379167D01*
X366161Y379457D01*
X368988Y380315D01*
X371594Y381708D01*
X373878Y383582D01*
X375102Y385074D01*
X376738D01*
X377962Y383582D01*
X380246Y381708D01*
X382852Y380315D01*
X385680Y379457D01*
X388620Y379167D01*
X391561Y379457D01*
X394388Y380315D01*
X396994Y381708D01*
X398125Y382636D01*
X399395Y382035D01*
Y354038D01*
X377482Y332125D01*
X205740D01*
X201955Y331627D01*
X198427Y330166D01*
X195399Y327841D01*
X172539Y304981D01*
X170214Y301953D01*
X168753Y298425D01*
X168255Y294640D01*
Y95038D01*
X167124Y94294D01*
X166899Y94311D01*
X165710Y95860D01*
X163300Y97710D01*
X160492Y98873D01*
X158750Y99102D01*
Y87630D01*
Y76158D01*
X160492Y76387D01*
X163300Y77550D01*
X165710Y79400D01*
X166899Y80949D01*
X168387Y80802D01*
X169512Y78698D01*
X171511Y76262D01*
X173948Y74262D01*
X176727Y72776D01*
X179743Y71862D01*
X182880Y71553D01*
X186017Y71862D01*
X189033Y72776D01*
X191812Y74262D01*
X192507Y74832D01*
X193655Y74289D01*
Y73660D01*
X194153Y69875D01*
X195614Y66347D01*
X197938Y63319D01*
X211908Y49349D01*
X214937Y47024D01*
X218465Y45563D01*
X222250Y45065D01*
X266700D01*
X270485Y45563D01*
X274013Y47024D01*
X277041Y49349D01*
X441668Y213975D01*
X604812D01*
X771979Y46809D01*
X775007Y44484D01*
X778535Y43023D01*
X782320Y42525D01*
X952500D01*
X956285Y43023D01*
X959813Y44484D01*
X962841Y46809D01*
X1012372Y96339D01*
X1014696Y99367D01*
X1016157Y102895D01*
X1016655Y106680D01*
Y195580D01*
X1016157Y199365D01*
X1014696Y202893D01*
X1012372Y205921D01*
X998401Y219891D01*
X995373Y222216D01*
X991845Y223677D01*
X988060Y224175D01*
X971780D01*
X971353Y224404D01*
X968336Y225319D01*
X965200Y225627D01*
X962064Y225319D01*
X959047Y224404D01*
X958620Y224175D01*
X933158D01*
X923945Y233388D01*
Y251366D01*
X925084Y251927D01*
X926496Y250844D01*
X929850Y249455D01*
X932180Y249148D01*
Y262890D01*
Y276632D01*
X929850Y276325D01*
X926496Y274935D01*
X925084Y273853D01*
X923945Y274414D01*
Y294640D01*
X923447Y298425D01*
X921986Y301953D01*
X919661Y304981D01*
X872672Y351972D01*
X869643Y354296D01*
X866115Y355757D01*
X862330Y356255D01*
X648678D01*
X631845Y373088D01*
Y382035D01*
X633115Y382636D01*
X634246Y381708D01*
X636852Y380315D01*
X639679Y379457D01*
X642620Y379167D01*
X645561Y379457D01*
X648388Y380315D01*
X650994Y381708D01*
X653278Y383582D01*
X655152Y385866D01*
X656545Y388472D01*
X657002Y389978D01*
X658349Y390045D01*
X658813Y388924D01*
X660503Y386723D01*
X662704Y385033D01*
X665268Y383971D01*
X666750Y383776D01*
Y396240D01*
Y408704D01*
X665268Y408509D01*
X662704Y407447D01*
X660503Y405757D01*
X658813Y403555D01*
X658349Y402435D01*
X657002Y402502D01*
X656545Y404008D01*
X655152Y406614D01*
X653278Y408898D01*
X650994Y410772D01*
X648388Y412165D01*
X645561Y413023D01*
X642620Y413313D01*
X639679Y413023D01*
X636852Y412165D01*
X634246Y410772D01*
X631962Y408898D01*
X630738Y407407D01*
X629102D01*
X627878Y408898D01*
X625594Y410772D01*
X622988Y412165D01*
X620160Y413023D01*
X617220Y413313D01*
X614280Y413023D01*
X611452Y412165D01*
X608846Y410772D01*
X606562Y408898D01*
X605338Y407407D01*
X603702D01*
X602478Y408898D01*
X600194Y410772D01*
X597588Y412165D01*
X594761Y413023D01*
X591820Y413313D01*
X588880Y413023D01*
X586052Y412165D01*
X583446Y410772D01*
X581162Y408898D01*
X579938Y407407D01*
X578302D01*
X577078Y408898D01*
X574794Y410772D01*
X572188Y412165D01*
X569361Y413023D01*
X566420Y413313D01*
X563479Y413023D01*
X560652Y412165D01*
X558046Y410772D01*
X555762Y408898D01*
X554538Y407407D01*
X552902D01*
X551678Y408898D01*
X549394Y410772D01*
X546788Y412165D01*
X543960Y413023D01*
X541020Y413313D01*
X538079Y413023D01*
X535252Y412165D01*
X532646Y410772D01*
X530362Y408898D01*
X529138Y407407D01*
X527502D01*
X526278Y408898D01*
X523994Y410772D01*
X521388Y412165D01*
X518560Y413023D01*
X515620Y413313D01*
X512679Y413023D01*
X509852Y412165D01*
X507246Y410772D01*
X504962Y408898D01*
X503738Y407407D01*
X502102D01*
X500878Y408898D01*
X498594Y410772D01*
X495988Y412165D01*
X493161Y413023D01*
X490220Y413313D01*
X487280Y413023D01*
X484452Y412165D01*
X481846Y410772D01*
X479562Y408898D01*
X478338Y407407D01*
X476702D01*
X475478Y408898D01*
X473194Y410772D01*
X470588Y412165D01*
X467761Y413023D01*
X464820Y413313D01*
X461880Y413023D01*
X459052Y412165D01*
X456446Y410772D01*
X454162Y408898D01*
X452938Y407407D01*
X451302D01*
X450078Y408898D01*
X447794Y410772D01*
X445188Y412165D01*
X442360Y413023D01*
X439420Y413313D01*
X436479Y413023D01*
X433652Y412165D01*
X431046Y410772D01*
X428762Y408898D01*
X427538Y407407D01*
X425902D01*
X424678Y408898D01*
X422394Y410772D01*
X419788Y412165D01*
X416960Y413023D01*
X414020Y413313D01*
X411079Y413023D01*
X408252Y412165D01*
X405646Y410772D01*
X403362Y408898D01*
X402138Y407407D01*
X400502D01*
X399278Y408898D01*
X396994Y410772D01*
X394388Y412165D01*
X391561Y413023D01*
X388620Y413313D01*
X385680Y413023D01*
X382852Y412165D01*
X380246Y410772D01*
X377962Y408898D01*
X376738Y407407D01*
X375102D01*
X373878Y408898D01*
X371594Y410772D01*
X368988Y412165D01*
X366161Y413023D01*
X363220Y413313D01*
X360280Y413023D01*
X357452Y412165D01*
X354846Y410772D01*
X353389Y409577D01*
X352129Y409744D01*
X351814Y409927D01*
X350812Y411232D01*
X349350Y412355D01*
X347647Y413060D01*
X345820Y413300D01*
X329820D01*
X327993Y413060D01*
X326290Y412355D01*
X324827Y411232D01*
X324546Y410865D01*
X300698D01*
X214015Y497548D01*
Y508996D01*
X215285Y509522D01*
X232229Y492579D01*
X235257Y490254D01*
X238785Y488793D01*
X242570Y488295D01*
X320040D01*
X323825Y488793D01*
X327353Y490254D01*
X330382Y492579D01*
X346892Y509089D01*
X349216Y512117D01*
X350677Y515645D01*
X351175Y519430D01*
Y534435D01*
X352445Y535036D01*
X353576Y534108D01*
X356182Y532715D01*
X359010Y531857D01*
X361950Y531567D01*
X364891Y531857D01*
X367718Y532715D01*
X370324Y534108D01*
X372608Y535982D01*
X373832Y537473D01*
X375468D01*
X376692Y535982D01*
X378976Y534108D01*
X381582Y532715D01*
X384409Y531857D01*
X387350Y531567D01*
X390290Y531857D01*
X393118Y532715D01*
X395724Y534108D01*
X398008Y535982D01*
X399232Y537473D01*
X400868D01*
X402092Y535982D01*
X404376Y534108D01*
X406982Y532715D01*
X409809Y531857D01*
X412750Y531567D01*
X415690Y531857D01*
X418518Y532715D01*
X421124Y534108D01*
X423408Y535982D01*
X424632Y537473D01*
X426268D01*
X427492Y535982D01*
X429776Y534108D01*
X432382Y532715D01*
X435210Y531857D01*
X438150Y531567D01*
X441091Y531857D01*
X443918Y532715D01*
X446524Y534108D01*
X448808Y535982D01*
X450032Y537473D01*
X451668D01*
X452892Y535982D01*
X455176Y534108D01*
X457782Y532715D01*
X460610Y531857D01*
X463550Y531567D01*
X466491Y531857D01*
X469318Y532715D01*
X471924Y534108D01*
X474208Y535982D01*
X475432Y537473D01*
X477068D01*
X478292Y535982D01*
X480576Y534108D01*
X483182Y532715D01*
X486009Y531857D01*
X488950Y531567D01*
X491890Y531857D01*
X494718Y532715D01*
X497324Y534108D01*
X499608Y535982D01*
X500832Y537473D01*
X502468D01*
X503692Y535982D01*
X505976Y534108D01*
X508582Y532715D01*
X511409Y531857D01*
X514350Y531567D01*
X517290Y531857D01*
X520118Y532715D01*
X522724Y534108D01*
X525008Y535982D01*
X526232Y537473D01*
X527868D01*
X529092Y535982D01*
X531376Y534108D01*
X533982Y532715D01*
X536810Y531857D01*
X539750Y531567D01*
X542691Y531857D01*
X545518Y532715D01*
X548124Y534108D01*
X550408Y535982D01*
X551632Y537473D01*
X553268D01*
X554492Y535982D01*
X556776Y534108D01*
X559382Y532715D01*
X562210Y531857D01*
X565150Y531567D01*
X568091Y531857D01*
X570918Y532715D01*
X573524Y534108D01*
X575808Y535982D01*
X577032Y537473D01*
X578668D01*
X579892Y535982D01*
X582176Y534108D01*
X584782Y532715D01*
X587609Y531857D01*
X590550Y531567D01*
X593490Y531857D01*
X596318Y532715D01*
X598924Y534108D01*
X601208Y535982D01*
X603082Y538266D01*
X604475Y540872D01*
X604932Y542378D01*
X606279Y542444D01*
X606743Y541325D01*
X608433Y539123D01*
X610634Y537433D01*
X613199Y536371D01*
X614680Y536176D01*
Y548640D01*
Y561104D01*
X613199Y560909D01*
X610634Y559847D01*
X608433Y558157D01*
X606743Y555956D01*
X606279Y554836D01*
X604932Y554902D01*
X604475Y556408D01*
X603082Y559014D01*
X601208Y561298D01*
X598924Y563172D01*
X596318Y564565D01*
X593490Y565423D01*
X590550Y565713D01*
X587609Y565423D01*
X584782Y564565D01*
X582176Y563172D01*
X579892Y561298D01*
X578668Y559807D01*
X577032D01*
X575808Y561298D01*
X573524Y563172D01*
X570918Y564565D01*
X568091Y565423D01*
X565150Y565713D01*
X562210Y565423D01*
X559382Y564565D01*
X556776Y563172D01*
X554492Y561298D01*
X553268Y559807D01*
X551632D01*
X550408Y561298D01*
X548124Y563172D01*
X545518Y564565D01*
X542691Y565423D01*
X539750Y565713D01*
X536810Y565423D01*
X533982Y564565D01*
X531376Y563172D01*
X529092Y561298D01*
X527868Y559807D01*
X526232D01*
X525008Y561298D01*
X522724Y563172D01*
X520118Y564565D01*
X517290Y565423D01*
X514350Y565713D01*
X511409Y565423D01*
X508582Y564565D01*
X505976Y563172D01*
X503692Y561298D01*
X502468Y559807D01*
X500832D01*
X499608Y561298D01*
X497324Y563172D01*
X494718Y564565D01*
X491890Y565423D01*
X488950Y565713D01*
X486009Y565423D01*
X483182Y564565D01*
X480576Y563172D01*
X478292Y561298D01*
X477068Y559807D01*
X475432D01*
X474208Y561298D01*
X471924Y563172D01*
X469318Y564565D01*
X466491Y565423D01*
X463550Y565713D01*
X460610Y565423D01*
X457782Y564565D01*
X455176Y563172D01*
X452892Y561298D01*
X451668Y559807D01*
X450032D01*
X448808Y561298D01*
X446524Y563172D01*
X443918Y564565D01*
X441091Y565423D01*
X438150Y565713D01*
X435210Y565423D01*
X432382Y564565D01*
X429776Y563172D01*
X428645Y562244D01*
X427375Y562845D01*
Y610870D01*
X426877Y614655D01*
X425416Y618183D01*
X423092Y621212D01*
X388801Y655501D01*
X386582Y657205D01*
X387013Y658475D01*
X837222D01*
X871505Y624192D01*
Y568988D01*
X871130Y568700D01*
X870008Y567238D01*
X869302Y565535D01*
X869062Y563707D01*
Y543692D01*
X869302Y541865D01*
X870008Y540162D01*
X871130Y538700D01*
X871505Y538412D01*
Y518490D01*
X872003Y514705D01*
X873464Y511178D01*
X874026Y510445D01*
Y486013D01*
X872557Y484544D01*
X857040D01*
X856712Y484500D01*
X845040D01*
X843213Y484260D01*
X841510Y483554D01*
X840048Y482433D01*
X838926Y480970D01*
X838220Y479267D01*
X837980Y477440D01*
Y467440D01*
X838220Y465613D01*
X838926Y463910D01*
X840048Y462448D01*
X841008Y461711D01*
X841082Y461540D01*
Y460339D01*
X841008Y460169D01*
X840048Y459432D01*
X838926Y457970D01*
X838220Y456267D01*
X837980Y454440D01*
Y444440D01*
X838220Y442612D01*
X838926Y440910D01*
X840048Y439447D01*
X841355Y438444D01*
Y410348D01*
X840182Y409861D01*
X814251Y435792D01*
X811223Y438116D01*
X807695Y439577D01*
X803910Y440075D01*
X763270D01*
X759485Y439577D01*
X755957Y438116D01*
X752928Y435792D01*
X728002Y410865D01*
X701620D01*
X699188Y412165D01*
X696360Y413023D01*
X693420Y413313D01*
X690480Y413023D01*
X687652Y412165D01*
X685046Y410772D01*
X682762Y408898D01*
X680888Y406614D01*
X679495Y404008D01*
X679038Y402502D01*
X677691Y402435D01*
X677227Y403555D01*
X675537Y405757D01*
X673335Y407447D01*
X670771Y408509D01*
X669290Y408704D01*
Y396240D01*
Y383776D01*
X670771Y383971D01*
X673335Y385033D01*
X675537Y386723D01*
X677227Y388924D01*
X677691Y390045D01*
X679038Y389978D01*
X679495Y388472D01*
X680888Y385866D01*
X682762Y383582D01*
X685046Y381708D01*
X687652Y380315D01*
X690480Y379457D01*
X693420Y379167D01*
X696360Y379457D01*
X699188Y380315D01*
X701620Y381615D01*
X734060D01*
X737845Y382113D01*
X741373Y383574D01*
X744401Y385899D01*
X769328Y410825D01*
X797852D01*
X825319Y383358D01*
X828347Y381034D01*
X831875Y379573D01*
X835660Y379075D01*
X870842D01*
X871130Y378700D01*
X872592Y377578D01*
X874295Y376873D01*
X876122Y376632D01*
X896137D01*
X897965Y376873D01*
X899668Y377578D01*
X901130Y378700D01*
X901418Y379075D01*
X956538D01*
X957860Y378060D01*
X959563Y377355D01*
X961390Y377115D01*
X984250D01*
X986077Y377355D01*
X987780Y378060D01*
X989242Y379183D01*
X990365Y380645D01*
X991070Y382348D01*
X991310Y384175D01*
Y403225D01*
X991070Y405052D01*
X990365Y406755D01*
X989242Y408218D01*
X987780Y409339D01*
X986077Y410045D01*
X984722Y410223D01*
X984169Y411252D01*
X984143Y411555D01*
X985264Y413015D01*
X986479Y415950D01*
X986727Y417830D01*
X972820D01*
X958913D01*
X959161Y415950D01*
X960376Y413015D01*
X961497Y411555D01*
X961471Y411252D01*
X960918Y410223D01*
X959563Y410045D01*
X957860Y409339D01*
X956538Y408325D01*
X901418D01*
X901130Y408700D01*
X899668Y409822D01*
X897965Y410527D01*
X896137Y410768D01*
X876122D01*
X874295Y410527D01*
X872592Y409822D01*
X871875Y409272D01*
X870605Y409898D01*
Y437585D01*
X870868Y437620D01*
X872570Y438325D01*
X874033Y439447D01*
X875155Y440910D01*
X875860Y442612D01*
X876101Y444440D01*
Y454440D01*
X875860Y456267D01*
X875155Y457970D01*
X874313Y459066D01*
X874813Y460336D01*
X877570D01*
X880703Y460749D01*
X883622Y461958D01*
X886128Y463881D01*
X894688Y472441D01*
X896612Y474948D01*
X897821Y477867D01*
X898233Y481000D01*
Y510445D01*
X898795Y511178D01*
X900257Y514705D01*
X900755Y518490D01*
Y538412D01*
X901130Y538700D01*
X902252Y540162D01*
X902957Y541865D01*
X903198Y543692D01*
Y563707D01*
X902957Y565535D01*
X902252Y567238D01*
X901130Y568700D01*
X900755Y568988D01*
Y630250D01*
X900257Y634035D01*
X898795Y637563D01*
X896471Y640592D01*
X853622Y683441D01*
X850593Y685766D01*
X847065Y687227D01*
X843280Y687725D01*
D02*
G37*
G36*
X784860Y406297D02*
X776122D01*
X775131Y406100D01*
X774291Y405539D01*
X773730Y404699D01*
X773533Y403708D01*
Y394970D01*
X784860D01*
Y406297D01*
D02*
G37*
G36*
Y392430D02*
X773533D01*
Y383692D01*
X773730Y382701D01*
X774291Y381861D01*
X775131Y381300D01*
X776122Y381103D01*
X784860D01*
Y392430D01*
D02*
G37*
G36*
X798727D02*
X787400D01*
Y381103D01*
X796138D01*
X797129Y381300D01*
X797969Y381861D01*
X798530Y382701D01*
X798727Y383692D01*
Y392430D01*
D02*
G37*
G36*
X100330Y169747D02*
X97193Y169438D01*
X94177Y168524D01*
X91398Y167038D01*
X88961Y165039D01*
X86962Y162602D01*
X85476Y159823D01*
X84562Y156806D01*
X84253Y153670D01*
X84562Y150534D01*
X85476Y147517D01*
X86962Y144738D01*
X88961Y142302D01*
X91398Y140302D01*
X94177Y138816D01*
X97193Y137901D01*
X100330Y137593D01*
X103467Y137901D01*
X106483Y138816D01*
X109262Y140302D01*
X111699Y142302D01*
X113698Y144738D01*
X115184Y147517D01*
X116098Y150534D01*
X116407Y153670D01*
X116098Y156806D01*
X115184Y159823D01*
X113698Y162602D01*
X111699Y165039D01*
X109262Y167038D01*
X106483Y168524D01*
X103467Y169438D01*
X100330Y169747D01*
D02*
G37*
G36*
X130582Y105410D02*
X118110D01*
Y92938D01*
X120440Y93245D01*
X123794Y94635D01*
X126675Y96845D01*
X128885Y99726D01*
X130275Y103080D01*
X130582Y105410D01*
D02*
G37*
G36*
X55880Y168477D02*
X52744Y168169D01*
X49727Y167254D01*
X46948Y165768D01*
X44511Y163769D01*
X42512Y161332D01*
X41026Y158553D01*
X40111Y155536D01*
X39803Y152400D01*
X40111Y149263D01*
X41026Y146247D01*
X42512Y143468D01*
X44511Y141032D01*
X46948Y139032D01*
X49727Y137546D01*
X52744Y136631D01*
X55880Y136323D01*
X59016Y136631D01*
X62033Y137546D01*
X64812Y139032D01*
X67249Y141032D01*
X69248Y143468D01*
X70734Y146247D01*
X71649Y149263D01*
X71957Y152400D01*
X71649Y155536D01*
X70734Y158553D01*
X69248Y161332D01*
X67249Y163769D01*
X64812Y165768D01*
X62033Y167254D01*
X59016Y168169D01*
X55880Y168477D01*
D02*
G37*
G36*
X118110Y120422D02*
Y107950D01*
X130582D01*
X130275Y110280D01*
X128885Y113635D01*
X126675Y116515D01*
X123794Y118726D01*
X120440Y120115D01*
X118110Y120422D01*
D02*
G37*
G36*
X115570D02*
X113240Y120115D01*
X109886Y118726D01*
X107005Y116515D01*
X104795Y113635D01*
X103405Y110280D01*
X103098Y107950D01*
X115570D01*
Y120422D01*
D02*
G37*
G36*
Y105410D02*
X103098D01*
X103405Y103080D01*
X104795Y99726D01*
X107005Y96845D01*
X109886Y94635D01*
X113240Y93245D01*
X115570Y92938D01*
Y105410D01*
D02*
G37*
G36*
X130582Y261620D02*
X118110D01*
Y249148D01*
X120440Y249455D01*
X123794Y250844D01*
X126675Y253055D01*
X128885Y255935D01*
X130275Y259290D01*
X130582Y261620D01*
D02*
G37*
G36*
X115570D02*
X103098D01*
X103405Y259290D01*
X104795Y255935D01*
X107005Y253055D01*
X109886Y250844D01*
X113240Y249455D01*
X115570Y249148D01*
Y261620D01*
D02*
G37*
G36*
X54610Y234517D02*
X51473Y234209D01*
X48457Y233294D01*
X45678Y231808D01*
X43242Y229809D01*
X41242Y227372D01*
X39756Y224593D01*
X38842Y221576D01*
X38533Y218440D01*
X38842Y215303D01*
X39756Y212287D01*
X41242Y209508D01*
X43242Y207071D01*
X45678Y205072D01*
X48457Y203586D01*
X51473Y202672D01*
X54610Y202363D01*
X57747Y202672D01*
X60763Y203586D01*
X63542Y205072D01*
X65978Y207071D01*
X67978Y209508D01*
X69464Y212287D01*
X70378Y215303D01*
X70687Y218440D01*
X70378Y221576D01*
X69464Y224593D01*
X67978Y227372D01*
X65978Y229809D01*
X63542Y231808D01*
X60763Y233294D01*
X57747Y234209D01*
X54610Y234517D01*
D02*
G37*
G36*
X100330D02*
X97193Y234209D01*
X94177Y233294D01*
X91398Y231808D01*
X88961Y229809D01*
X86962Y227372D01*
X85476Y224593D01*
X84562Y221576D01*
X84253Y218440D01*
X84562Y215303D01*
X85476Y212287D01*
X86962Y209508D01*
X88961Y207071D01*
X91398Y205072D01*
X94177Y203586D01*
X97193Y202672D01*
X100330Y202363D01*
X103467Y202672D01*
X106483Y203586D01*
X109262Y205072D01*
X111699Y207071D01*
X113698Y209508D01*
X115184Y212287D01*
X116098Y215303D01*
X116407Y218440D01*
X116098Y221576D01*
X115184Y224593D01*
X113698Y227372D01*
X111699Y229809D01*
X109262Y231808D01*
X106483Y233294D01*
X103467Y234209D01*
X100330Y234517D01*
D02*
G37*
G36*
X971550Y431269D02*
X970915D01*
X967765Y430854D01*
X964830Y429639D01*
X962310Y427705D01*
X960376Y425185D01*
X959161Y422250D01*
X958913Y420370D01*
X971550D01*
Y431269D01*
D02*
G37*
G36*
X692150Y565713D02*
X689210Y565423D01*
X686382Y564565D01*
X683776Y563172D01*
X681492Y561298D01*
X680268Y559807D01*
X678632D01*
X677408Y561298D01*
X675124Y563172D01*
X672518Y564565D01*
X669690Y565423D01*
X666750Y565713D01*
X663810Y565423D01*
X660982Y564565D01*
X658376Y563172D01*
X656092Y561298D01*
X654868Y559807D01*
X653232D01*
X652008Y561298D01*
X649724Y563172D01*
X647118Y564565D01*
X644290Y565423D01*
X641350Y565713D01*
X638410Y565423D01*
X635582Y564565D01*
X632976Y563172D01*
X630692Y561298D01*
X628818Y559014D01*
X627425Y556408D01*
X626968Y554902D01*
X625621Y554836D01*
X625157Y555956D01*
X623467Y558157D01*
X621265Y559847D01*
X618702Y560909D01*
X617220Y561104D01*
Y548640D01*
Y536176D01*
X618702Y536371D01*
X621265Y537433D01*
X623467Y539123D01*
X625157Y541325D01*
X625621Y542444D01*
X626968Y542378D01*
X627425Y540872D01*
X628818Y538266D01*
X630692Y535982D01*
X632976Y534108D01*
X635582Y532715D01*
X638410Y531857D01*
X641350Y531567D01*
X644290Y531857D01*
X647118Y532715D01*
X649724Y534108D01*
X652008Y535982D01*
X653232Y537473D01*
X654868D01*
X656092Y535982D01*
X658376Y534108D01*
X660982Y532715D01*
X663810Y531857D01*
X666750Y531567D01*
X669690Y531857D01*
X672518Y532715D01*
X675124Y534108D01*
X677408Y535982D01*
X678632Y537473D01*
X680268D01*
X681492Y535982D01*
X683776Y534108D01*
X686382Y532715D01*
X689210Y531857D01*
X692150Y531567D01*
X695090Y531857D01*
X697918Y532715D01*
X700524Y534108D01*
X702808Y535982D01*
X704682Y538266D01*
X706075Y540872D01*
X706933Y543699D01*
X707223Y546640D01*
Y550640D01*
X706933Y553581D01*
X706075Y556408D01*
X704682Y559014D01*
X702808Y561298D01*
X700524Y563172D01*
X697918Y564565D01*
X695090Y565423D01*
X692150Y565713D01*
D02*
G37*
G36*
X784860Y552430D02*
X773533D01*
Y543692D01*
X773730Y542701D01*
X774291Y541861D01*
X775131Y541300D01*
X776122Y541102D01*
X784860D01*
Y552430D01*
D02*
G37*
G36*
X65074Y541020D02*
X55880D01*
Y531826D01*
X57361Y532021D01*
X59925Y533083D01*
X62127Y534773D01*
X63817Y536974D01*
X64879Y539538D01*
X65074Y541020D01*
D02*
G37*
G36*
X29465Y609015D02*
X23115D01*
Y599440D01*
X32055D01*
Y606425D01*
X31857Y607416D01*
X31296Y608256D01*
X30456Y608818D01*
X29465Y609015D01*
D02*
G37*
G36*
X798727Y552430D02*
X787400D01*
Y541102D01*
X796138D01*
X797129Y541300D01*
X797969Y541861D01*
X798530Y542701D01*
X798727Y543692D01*
Y552430D01*
D02*
G37*
G36*
X784860Y566297D02*
X776122D01*
X775131Y566100D01*
X774291Y565538D01*
X773730Y564698D01*
X773533Y563707D01*
Y554970D01*
X784860D01*
Y566297D01*
D02*
G37*
G36*
X796138D02*
X787400D01*
Y554970D01*
X798727D01*
Y563707D01*
X798530Y564698D01*
X797969Y565538D01*
X797129Y566100D01*
X796138Y566297D01*
D02*
G37*
G36*
X20575Y609015D02*
X14225D01*
X13234Y608818D01*
X12394Y608256D01*
X11832Y607416D01*
X11635Y606425D01*
Y599440D01*
X20575D01*
Y609015D01*
D02*
G37*
G36*
X32055Y596900D02*
X23115D01*
Y587325D01*
X29465D01*
X30456Y587522D01*
X31296Y588084D01*
X31857Y588924D01*
X32055Y589915D01*
Y596900D01*
D02*
G37*
G36*
X53340Y541020D02*
X44146D01*
X44341Y539538D01*
X45403Y536974D01*
X47093Y534773D01*
X49295Y533083D01*
X51859Y532021D01*
X53340Y531826D01*
Y541020D01*
D02*
G37*
G36*
X855770Y503030D02*
X845040D01*
X844049Y502833D01*
X843209Y502271D01*
X842648Y501431D01*
X842450Y500440D01*
Y496710D01*
X855770D01*
Y503030D01*
D02*
G37*
G36*
X811040Y496000D02*
X787040D01*
X785212Y495760D01*
X783510Y495055D01*
X782047Y493932D01*
X780925Y492470D01*
X780220Y490767D01*
X779979Y488940D01*
Y455940D01*
X780220Y454113D01*
X780925Y452410D01*
X782047Y450947D01*
X783510Y449826D01*
X785212Y449120D01*
X787040Y448880D01*
X811040D01*
X812867Y449120D01*
X814570Y449826D01*
X816032Y450947D01*
X817154Y452410D01*
X817860Y454113D01*
X818100Y455940D01*
Y488940D01*
X817860Y490767D01*
X817154Y492470D01*
X816032Y493932D01*
X814570Y495055D01*
X812867Y495760D01*
X811040Y496000D01*
D02*
G37*
G36*
X855770Y494170D02*
X842450D01*
Y490440D01*
X842648Y489449D01*
X843209Y488609D01*
X844049Y488048D01*
X845040Y487850D01*
X855770D01*
Y494170D01*
D02*
G37*
G36*
X871630D02*
X858310D01*
Y487850D01*
X869040D01*
X870031Y488048D01*
X870871Y488609D01*
X871433Y489449D01*
X871630Y490440D01*
Y494170D01*
D02*
G37*
G36*
X20575Y596900D02*
X11635D01*
Y589915D01*
X11832Y588924D01*
X12394Y588084D01*
X13234Y587522D01*
X14225Y587325D01*
X20575D01*
Y596900D01*
D02*
G37*
G36*
X156210Y86360D02*
X146008D01*
X146237Y84618D01*
X147400Y81810D01*
X149250Y79400D01*
X151660Y77550D01*
X154467Y76387D01*
X156210Y76158D01*
Y86360D01*
D02*
G37*
G36*
X869040Y503030D02*
X858310D01*
Y496710D01*
X871630D01*
Y500440D01*
X871433Y501431D01*
X870871Y502271D01*
X870031Y502833D01*
X869040Y503030D01*
D02*
G37*
G36*
X974725Y431269D02*
X974090D01*
Y420370D01*
X986727D01*
X986479Y422250D01*
X985264Y425185D01*
X983330Y427705D01*
X980810Y429639D01*
X977875Y430854D01*
X974725Y431269D01*
D02*
G37*
%LPD*%
G36*
X483689Y279219D02*
X486717Y276894D01*
X490245Y275433D01*
X494030Y274935D01*
X792439D01*
X792847Y273732D01*
X791535Y272725D01*
X789324Y269844D01*
X787935Y266490D01*
X787628Y264160D01*
X801370D01*
Y262890D01*
X802640D01*
Y249148D01*
X804970Y249455D01*
X808325Y250844D01*
X811205Y253055D01*
X813416Y255935D01*
X814685Y259000D01*
X815955Y258747D01*
Y198120D01*
X816453Y194335D01*
X817914Y190807D01*
X820238Y187778D01*
X852785Y155232D01*
Y95038D01*
X851654Y94294D01*
X851429Y94311D01*
X850240Y95860D01*
X847830Y97710D01*
X845023Y98873D01*
X843280Y99102D01*
Y87630D01*
Y76158D01*
X845023Y76387D01*
X847830Y77550D01*
X850240Y79400D01*
X851429Y80949D01*
X852917Y80802D01*
X854042Y78698D01*
X856041Y76262D01*
X858478Y74262D01*
X860755Y73045D01*
X860437Y71775D01*
X788378D01*
X621212Y238941D01*
X618183Y241266D01*
X614655Y242727D01*
X610870Y243225D01*
X435610D01*
X431825Y242727D01*
X428297Y241266D01*
X425269Y238941D01*
X260642Y74315D01*
X228308D01*
X222905Y79718D01*
Y81050D01*
X223134Y81477D01*
X224049Y84494D01*
X224357Y87630D01*
X224049Y90766D01*
X223134Y93783D01*
X222905Y94210D01*
Y176822D01*
X241008Y194925D01*
X266168D01*
X266929Y193655D01*
X265816Y191573D01*
X264902Y188556D01*
X264593Y185420D01*
X264902Y182283D01*
X265816Y179267D01*
X267302Y176488D01*
X269301Y174051D01*
X271738Y172052D01*
X273842Y170927D01*
X273989Y169439D01*
X272440Y168250D01*
X270590Y165840D01*
X269427Y163032D01*
X269198Y161290D01*
X280670D01*
X292142D01*
X291913Y163032D01*
X290750Y165840D01*
X288900Y168250D01*
X287351Y169439D01*
X287334Y169664D01*
X288078Y170795D01*
X312420D01*
X316205Y171293D01*
X319733Y172754D01*
X322761Y175079D01*
X449762Y302078D01*
X452086Y305107D01*
X453257Y307934D01*
X453773Y308143D01*
X454720Y308187D01*
X483689Y279219D01*
D02*
G37*
G36*
X424795Y336276D02*
Y318478D01*
X306362Y200045D01*
X295172D01*
X294411Y201315D01*
X295524Y203397D01*
X296439Y206413D01*
X296747Y209550D01*
X296439Y212687D01*
X295524Y215703D01*
X294038Y218482D01*
X292038Y220919D01*
X289602Y222918D01*
X286823Y224404D01*
X283806Y225319D01*
X280670Y225627D01*
X277533Y225319D01*
X274517Y224404D01*
X274090Y224175D01*
X234950D01*
X231165Y223677D01*
X227637Y222216D01*
X224608Y219891D01*
X198775Y194058D01*
X197505Y194584D01*
Y288582D01*
X211798Y302875D01*
X383540D01*
X387325Y303373D01*
X390853Y304834D01*
X393881Y307159D01*
X423525Y336802D01*
X424795Y336276D01*
D02*
G37*
G36*
X99228Y559316D02*
X101102Y557032D01*
X103386Y555158D01*
X105992Y553765D01*
X107498Y553308D01*
X107564Y551961D01*
X106445Y551497D01*
X104243Y549807D01*
X102553Y547606D01*
X101491Y545042D01*
X101296Y543560D01*
X122224D01*
X122029Y545042D01*
X120967Y547606D01*
X119277Y549807D01*
X117076Y551497D01*
X116355Y551795D01*
X116608Y553065D01*
X137364D01*
X138000Y552290D01*
Y543560D01*
X148590D01*
Y542290D01*
X149860D01*
Y529700D01*
X156590D01*
X157581Y529897D01*
X158095Y530241D01*
X159184Y529828D01*
X159365Y529678D01*
Y524218D01*
X151422Y516275D01*
X111468D01*
X97175Y530568D01*
Y560462D01*
X98445Y560780D01*
X99228Y559316D01*
D02*
G37*
G36*
X851515Y282232D02*
Y213360D01*
X852013Y209575D01*
X853474Y206047D01*
X855798Y203018D01*
X883738Y175079D01*
X886767Y172754D01*
X890295Y171293D01*
X894080Y170795D01*
X957792D01*
X958536Y169664D01*
X958519Y169439D01*
X956970Y168250D01*
X955120Y165840D01*
X953957Y163032D01*
X953728Y161290D01*
X965200D01*
X976672D01*
X976443Y163032D01*
X975280Y165840D01*
X973430Y168250D01*
X971881Y169439D01*
X972028Y170927D01*
X974132Y172052D01*
X976569Y174051D01*
X978568Y176488D01*
X980054Y179267D01*
X980968Y182283D01*
X981277Y185420D01*
X980968Y188556D01*
X980054Y191573D01*
X978941Y193655D01*
X979702Y194925D01*
X982002D01*
X987405Y189522D01*
Y112738D01*
X946442Y71775D01*
X907435D01*
Y81050D01*
X907664Y81477D01*
X908578Y84494D01*
X908887Y87630D01*
X908578Y90766D01*
X907664Y93783D01*
X906178Y96562D01*
X904178Y98998D01*
X901742Y100998D01*
X898963Y102484D01*
X895947Y103399D01*
X892810Y103707D01*
X889673Y103399D01*
X886657Y102484D01*
X883878Y100998D01*
X883183Y100428D01*
X882035Y100971D01*
Y161290D01*
X881537Y165075D01*
X880076Y168603D01*
X877751Y171632D01*
X845205Y204178D01*
Y275590D01*
X844707Y279375D01*
X843246Y282903D01*
X840921Y285931D01*
X826952Y299902D01*
X826299Y300402D01*
X826707Y301605D01*
X832142D01*
X851515Y282232D01*
D02*
G37*
%LPC*%
G36*
X800100Y120422D02*
X797770Y120115D01*
X794416Y118726D01*
X791535Y116515D01*
X789324Y113635D01*
X787935Y110280D01*
X787628Y107950D01*
X800100D01*
Y120422D01*
D02*
G37*
G36*
X247650D02*
X245320Y120115D01*
X241966Y118726D01*
X239085Y116515D01*
X236875Y113635D01*
X235485Y110280D01*
X235178Y107950D01*
X247650D01*
Y120422D01*
D02*
G37*
G36*
Y105410D02*
X235178D01*
X235485Y103080D01*
X236875Y99726D01*
X239085Y96845D01*
X241966Y94635D01*
X245320Y93245D01*
X247650Y92938D01*
Y105410D01*
D02*
G37*
G36*
X800100D02*
X787628D01*
X787935Y103080D01*
X789324Y99726D01*
X791535Y96845D01*
X794416Y94635D01*
X797770Y93245D01*
X800100Y92938D01*
Y105410D01*
D02*
G37*
G36*
X840740Y86360D02*
X830538D01*
X830767Y84618D01*
X831930Y81810D01*
X833780Y79400D01*
X836190Y77550D01*
X838997Y76387D01*
X840740Y76158D01*
Y86360D01*
D02*
G37*
G36*
Y99102D02*
X838997Y98873D01*
X836190Y97710D01*
X833780Y95860D01*
X831930Y93450D01*
X830767Y90642D01*
X830538Y88900D01*
X840740D01*
Y99102D01*
D02*
G37*
G36*
X815112Y105410D02*
X802640D01*
Y92938D01*
X804970Y93245D01*
X808325Y94635D01*
X811205Y96845D01*
X813416Y99726D01*
X814805Y103080D01*
X815112Y105410D01*
D02*
G37*
G36*
X262662D02*
X250190D01*
Y92938D01*
X252520Y93245D01*
X255875Y94635D01*
X258755Y96845D01*
X260965Y99726D01*
X262355Y103080D01*
X262662Y105410D01*
D02*
G37*
G36*
X800100Y261620D02*
X787628D01*
X787935Y259290D01*
X789324Y255935D01*
X791535Y253055D01*
X794416Y250844D01*
X797770Y249455D01*
X800100Y249148D01*
Y261620D01*
D02*
G37*
G36*
X784860Y234517D02*
X781723Y234209D01*
X778707Y233294D01*
X775928Y231808D01*
X773492Y229809D01*
X771492Y227372D01*
X770006Y224593D01*
X769091Y221576D01*
X768783Y218440D01*
X769091Y215303D01*
X770006Y212287D01*
X771492Y209508D01*
X773492Y207071D01*
X775928Y205072D01*
X778707Y203586D01*
X781723Y202672D01*
X784860Y202363D01*
X787997Y202672D01*
X791013Y203586D01*
X793792Y205072D01*
X796228Y207071D01*
X798228Y209508D01*
X799714Y212287D01*
X800629Y215303D01*
X800937Y218440D01*
X800629Y221576D01*
X799714Y224593D01*
X798228Y227372D01*
X796228Y229809D01*
X793792Y231808D01*
X791013Y233294D01*
X787997Y234209D01*
X784860Y234517D01*
D02*
G37*
G36*
X739140D02*
X736003Y234209D01*
X732987Y233294D01*
X730208Y231808D01*
X727772Y229809D01*
X725772Y227372D01*
X724286Y224593D01*
X723372Y221576D01*
X723063Y218440D01*
X723372Y215303D01*
X724286Y212287D01*
X725772Y209508D01*
X727772Y207071D01*
X730208Y205072D01*
X732987Y203586D01*
X736003Y202672D01*
X739140Y202363D01*
X742277Y202672D01*
X745293Y203586D01*
X748072Y205072D01*
X750508Y207071D01*
X752508Y209508D01*
X753994Y212287D01*
X754909Y215303D01*
X755217Y218440D01*
X754909Y221576D01*
X753994Y224593D01*
X752508Y227372D01*
X750508Y229809D01*
X748072Y231808D01*
X745293Y233294D01*
X742277Y234209D01*
X739140Y234517D01*
D02*
G37*
G36*
X802640Y120422D02*
Y107950D01*
X815112D01*
X814805Y110280D01*
X813416Y113635D01*
X811205Y116515D01*
X808325Y118726D01*
X804970Y120115D01*
X802640Y120422D01*
D02*
G37*
G36*
X740410Y168477D02*
X737273Y168169D01*
X734257Y167254D01*
X731478Y165768D01*
X729042Y163769D01*
X727042Y161332D01*
X725556Y158553D01*
X724641Y155536D01*
X724333Y152400D01*
X724641Y149263D01*
X725556Y146247D01*
X727042Y143468D01*
X729042Y141032D01*
X731478Y139032D01*
X734257Y137546D01*
X737273Y136631D01*
X740410Y136323D01*
X743547Y136631D01*
X746563Y137546D01*
X749342Y139032D01*
X751778Y141032D01*
X753778Y143468D01*
X755264Y146247D01*
X756179Y149263D01*
X756487Y152400D01*
X756179Y155536D01*
X755264Y158553D01*
X753778Y161332D01*
X751778Y163769D01*
X749342Y165768D01*
X746563Y167254D01*
X743547Y168169D01*
X740410Y168477D01*
D02*
G37*
G36*
X250190Y120422D02*
Y107950D01*
X262662D01*
X262355Y110280D01*
X260965Y113635D01*
X258755Y116515D01*
X255875Y118726D01*
X252520Y120115D01*
X250190Y120422D01*
D02*
G37*
G36*
X784860Y169747D02*
X781723Y169438D01*
X778707Y168524D01*
X775928Y167038D01*
X773492Y165039D01*
X771492Y162602D01*
X770006Y159823D01*
X769091Y156806D01*
X768783Y153670D01*
X769091Y150534D01*
X770006Y147517D01*
X771492Y144738D01*
X773492Y142302D01*
X775928Y140302D01*
X778707Y138816D01*
X781723Y137901D01*
X784860Y137593D01*
X787997Y137901D01*
X791013Y138816D01*
X793792Y140302D01*
X796228Y142302D01*
X798228Y144738D01*
X799714Y147517D01*
X800629Y150534D01*
X800937Y153670D01*
X800629Y156806D01*
X799714Y159823D01*
X798228Y162602D01*
X796228Y165039D01*
X793792Y167038D01*
X791013Y168524D01*
X787997Y169438D01*
X784860Y169747D01*
D02*
G37*
G36*
X292142Y158750D02*
X281940D01*
Y148548D01*
X283682Y148777D01*
X286490Y149940D01*
X288900Y151790D01*
X290750Y154200D01*
X291913Y157008D01*
X292142Y158750D01*
D02*
G37*
G36*
X279400D02*
X269198D01*
X269427Y157008D01*
X270590Y154200D01*
X272440Y151790D01*
X274850Y149940D01*
X277658Y148777D01*
X279400Y148548D01*
Y158750D01*
D02*
G37*
G36*
X262662Y261620D02*
X250190D01*
Y249148D01*
X252520Y249455D01*
X255875Y250844D01*
X258755Y253055D01*
X260965Y255935D01*
X262355Y259290D01*
X262662Y261620D01*
D02*
G37*
G36*
X247650D02*
X235178D01*
X235485Y259290D01*
X236875Y255935D01*
X239085Y253055D01*
X241966Y250844D01*
X245320Y249455D01*
X247650Y249148D01*
Y261620D01*
D02*
G37*
G36*
Y276632D02*
X245320Y276325D01*
X241966Y274935D01*
X239085Y272725D01*
X236875Y269844D01*
X235485Y266490D01*
X235178Y264160D01*
X247650D01*
Y276632D01*
D02*
G37*
G36*
X250190D02*
Y264160D01*
X262662D01*
X262355Y266490D01*
X260965Y269844D01*
X258755Y272725D01*
X255875Y274935D01*
X252520Y276325D01*
X250190Y276632D01*
D02*
G37*
G36*
X110490Y541020D02*
X101296D01*
X101491Y539538D01*
X102553Y536974D01*
X104243Y534773D01*
X106445Y533083D01*
X109009Y532021D01*
X110490Y531826D01*
Y541020D01*
D02*
G37*
G36*
X122224D02*
X113030D01*
Y531826D01*
X114511Y532021D01*
X117076Y533083D01*
X119277Y534773D01*
X120967Y536974D01*
X122029Y539538D01*
X122224Y541020D01*
D02*
G37*
G36*
X147320D02*
X138000D01*
Y532290D01*
X138197Y531299D01*
X138759Y530459D01*
X139599Y529897D01*
X140590Y529700D01*
X147320D01*
Y541020D01*
D02*
G37*
G36*
X932180Y120422D02*
X929850Y120115D01*
X926496Y118726D01*
X923615Y116515D01*
X921404Y113635D01*
X920015Y110280D01*
X919708Y107950D01*
X932180D01*
Y120422D01*
D02*
G37*
G36*
X947192Y105410D02*
X934720D01*
Y92938D01*
X937050Y93245D01*
X940405Y94635D01*
X943285Y96845D01*
X945496Y99726D01*
X946885Y103080D01*
X947192Y105410D01*
D02*
G37*
G36*
X932180D02*
X919708D01*
X920015Y103080D01*
X921404Y99726D01*
X923615Y96845D01*
X926496Y94635D01*
X929850Y93245D01*
X932180Y92938D01*
Y105410D01*
D02*
G37*
G36*
X934720Y120422D02*
Y107950D01*
X947192D01*
X946885Y110280D01*
X945496Y113635D01*
X943285Y116515D01*
X940405Y118726D01*
X937050Y120115D01*
X934720Y120422D01*
D02*
G37*
G36*
X976672Y158750D02*
X966470D01*
Y148548D01*
X968213Y148777D01*
X971020Y149940D01*
X973430Y151790D01*
X975280Y154200D01*
X976443Y157008D01*
X976672Y158750D01*
D02*
G37*
G36*
X963930D02*
X953728D01*
X953957Y157008D01*
X955120Y154200D01*
X956970Y151790D01*
X959380Y149940D01*
X962188Y148777D01*
X963930Y148548D01*
Y158750D01*
D02*
G37*
%LPD*%
D10*
X857040Y449440D02*
D03*
Y472440D02*
D03*
Y495440D02*
D03*
D11*
X799040Y472440D02*
D03*
D12*
X54865Y598170D02*
D03*
X21845D02*
D03*
D13*
X182880Y87630D02*
Y294640D01*
X205740Y317500D01*
X383540D01*
X414020Y347980D01*
Y396240D01*
X439420D02*
Y312420D01*
X312420Y185420D01*
X280670D01*
Y209550D02*
X234950D01*
X208280Y182880D01*
Y87630D01*
Y73660D01*
X222250Y59690D01*
X266700D01*
X435610Y228600D01*
X610870D01*
X782320Y57150D01*
X892810D01*
X952500D01*
X1002030Y106680D01*
Y195580D01*
X988060Y209550D01*
X965200D01*
X927100D01*
X909320Y227330D01*
Y294640D01*
X862330Y341630D01*
X642620D01*
X617220Y367030D01*
Y396240D01*
X693420D02*
X734060D01*
X763270Y425450D01*
X803910D01*
X835660Y393700D01*
X855980D01*
Y445770D01*
Y393700D02*
X863390D01*
X863600D01*
X886130D01*
X972820D01*
X886130Y518490D02*
Y553700D01*
Y630250D01*
X843280Y673100D01*
X93980D01*
X54610Y633730D01*
Y567690D01*
X82550Y524510D02*
X105410Y501650D01*
X157480D01*
X173990Y518160D01*
Y542290D01*
X199390D02*
Y491490D01*
X294640Y396240D01*
X337820D01*
X336550Y519430D02*
Y548640D01*
Y519430D02*
X320040Y502920D01*
X242570D01*
X224790Y520700D01*
Y542290D01*
X199390Y567690D02*
Y586740D01*
X208280Y595630D01*
X341630D01*
X361950Y575310D01*
Y548640D01*
X387350D02*
Y594360D01*
X363220Y618490D01*
X195580D01*
X173990Y596900D01*
Y567690D01*
X148590D02*
X111760D01*
Y542290D02*
X148590D01*
X82550Y594360D02*
X133350Y645160D01*
X378460D01*
X412750Y610870D01*
Y548640D01*
X464820Y396240D02*
Y318770D01*
X494030Y289560D01*
X816610D01*
X830580Y275590D01*
Y198120D01*
X867410Y161290D01*
Y87630D01*
X892810Y57150D02*
Y87630D01*
X965200Y185420D02*
X894080D01*
X866140Y213360D01*
Y288290D01*
X838200Y316230D01*
X518160D01*
X490220Y344170D01*
Y396240D01*
X863390Y393910D02*
X863600Y393700D01*
X863390D02*
Y393910D01*
X82550Y594360D02*
Y524510D01*
D14*
X0Y0D02*
X1031240D01*
Y718820D01*
X0D01*
Y0D01*
D15*
X857040Y472440D02*
X877570D01*
X886130Y481000D01*
Y518490D01*
D16*
X786130Y393700D02*
D03*
X886130D02*
D03*
Y553700D02*
D03*
X786130D02*
D03*
D17*
X464820Y396240D02*
D03*
X490220D02*
D03*
X515620D02*
D03*
X541020D02*
D03*
X566420D02*
D03*
X591820D02*
D03*
X617220D02*
D03*
X642620D02*
D03*
X668020D02*
D03*
X693420D02*
D03*
X692150Y548640D02*
D03*
X666750D02*
D03*
X641350D02*
D03*
X615950D02*
D03*
X590550D02*
D03*
X565150D02*
D03*
X539750D02*
D03*
X514350D02*
D03*
X488950D02*
D03*
X463550D02*
D03*
X438150D02*
D03*
X412750D02*
D03*
X387350D02*
D03*
X361950D02*
D03*
X336550D02*
D03*
X224790Y567690D02*
D03*
Y542290D02*
D03*
X199390Y567690D02*
D03*
Y542290D02*
D03*
X173990Y567690D02*
D03*
Y542290D02*
D03*
X148590Y567690D02*
D03*
X363220Y396240D02*
D03*
X388620D02*
D03*
X414020D02*
D03*
X439420D02*
D03*
D18*
X337820Y396240D02*
D03*
X148590Y542290D02*
D03*
D19*
X116840Y106680D02*
D03*
X248920D02*
D03*
Y262890D02*
D03*
X116840D02*
D03*
X801370Y106680D02*
D03*
X933450D02*
D03*
Y262890D02*
D03*
X801370D02*
D03*
D20*
X157480Y87630D02*
D03*
X182880D02*
D03*
X208280D02*
D03*
X280670Y160020D02*
D03*
Y185420D02*
D03*
Y209550D02*
D03*
X100330Y218440D02*
D03*
X54610D02*
D03*
X55880Y152400D02*
D03*
X100330Y153670D02*
D03*
X740410Y152400D02*
D03*
X784860Y153670D02*
D03*
Y218440D02*
D03*
X739140D02*
D03*
X842010Y87630D02*
D03*
X867410D02*
D03*
X892810D02*
D03*
X965200Y160020D02*
D03*
Y185420D02*
D03*
Y209550D02*
D03*
D21*
X972820Y393700D02*
D03*
D22*
X972820Y419100D02*
D03*
D23*
X111760Y542290D02*
D03*
Y567690D02*
D03*
X54610D02*
D03*
Y542290D02*
D03*
M02*
