G04 Layer_Color=128*
%FSLAX44Y44*%
%MOMM*%
G71*
G01*
G75*
%ADD24C,0.0508*%
D24*
X157480Y81630D02*
Y93630D01*
X163480Y87630D02*
X151480D01*
X182880Y81630D02*
Y93630D01*
X176880Y87630D02*
X188880D01*
X202280D02*
X214280D01*
X241420Y106680D02*
X256420D01*
X248920Y99180D02*
Y114180D01*
X274670Y160020D02*
X286670D01*
X280670Y154020D02*
Y166020D01*
Y179420D02*
Y191420D01*
X274670Y185420D02*
X286670D01*
X280670Y203550D02*
Y215550D01*
X274670Y209550D02*
X286670D01*
X248920Y255390D02*
Y270390D01*
X241420Y262890D02*
X256420D01*
X383620Y396240D02*
X393620D01*
X388620Y391240D02*
Y401240D01*
X409020Y396240D02*
X419020D01*
X414020Y391240D02*
Y401240D01*
X434420Y396240D02*
X444420D01*
X439420Y391240D02*
Y401240D01*
X459820Y396240D02*
X469820D01*
X464820Y391240D02*
Y401240D01*
X485220Y396240D02*
X495220D01*
X490220Y391240D02*
Y401240D01*
X510620Y396240D02*
X520620D01*
X515620Y391240D02*
Y401240D01*
X536020Y396240D02*
X546020D01*
X541020Y391240D02*
Y401240D01*
X561420Y396240D02*
X571420D01*
X586820D02*
X596820D01*
X612220D02*
X622220D01*
X637620D02*
X647620D01*
X642620Y391240D02*
Y401240D01*
X663020Y396240D02*
X673020D01*
X668020Y391240D02*
Y401240D01*
X688420Y396240D02*
X698420D01*
X693420Y391240D02*
Y401240D01*
X781560Y393700D02*
X790700D01*
X786130Y389130D02*
Y398270D01*
X881560Y393700D02*
X890700D01*
X886130Y389130D02*
Y398270D01*
X968502Y393700D02*
X977138D01*
X972820Y389382D02*
Y398018D01*
Y414782D02*
Y423418D01*
X968502Y419100D02*
X977138D01*
X886130Y549130D02*
Y558270D01*
X881560Y553700D02*
X890700D01*
X790700D02*
X781560D01*
X786130Y549130D02*
Y558270D01*
X692150Y553640D02*
Y543640D01*
X687150Y548640D02*
X697150D01*
X666750Y553640D02*
Y543640D01*
X661750Y548640D02*
X671750D01*
X641350Y553640D02*
Y543640D01*
X636350Y548640D02*
X646350D01*
X615950Y553640D02*
Y543640D01*
X610950Y548640D02*
X620950D01*
X595550D02*
X585550D01*
X590550Y543640D02*
Y553640D01*
X570150Y548640D02*
X560150D01*
X565150Y543640D02*
Y553640D01*
X539750D02*
Y543640D01*
X544750Y548640D02*
X534750D01*
X519350D02*
X509350D01*
X493950D02*
X483950D01*
X468550D02*
X458550D01*
X463550Y543640D02*
Y553640D01*
X488950Y543640D02*
Y553640D01*
X514350Y543640D02*
Y553640D01*
X438150D02*
Y543640D01*
X433150Y548640D02*
X443150D01*
X412750Y553640D02*
Y543640D01*
X407750Y548640D02*
X417750D01*
X387350Y553640D02*
Y543640D01*
X382350Y548640D02*
X392350D01*
X361950Y553640D02*
Y543640D01*
X356950Y548640D02*
X366950D01*
X336550Y553640D02*
Y543640D01*
X331550Y548640D02*
X341550D01*
X224790Y562690D02*
Y572690D01*
X219790Y567690D02*
X229790D01*
Y542290D02*
X219790D01*
X224790Y537290D02*
Y547290D01*
X199390Y562690D02*
Y572690D01*
X194390Y567690D02*
X204390D01*
Y542290D02*
X194390D01*
X199390Y537290D02*
Y547290D01*
X173990Y562690D02*
Y572690D01*
X168990Y567690D02*
X178990D01*
Y542290D02*
X168990D01*
X173990Y537290D02*
Y547290D01*
X148590Y562690D02*
Y572690D01*
X143590Y567690D02*
X153590D01*
Y542290D02*
X143590D01*
X148590Y537290D02*
Y547290D01*
X111760Y564134D02*
Y571246D01*
X108204Y567690D02*
X115316D01*
Y542290D02*
X108204D01*
X111760Y538734D02*
Y545846D01*
X54610Y564134D02*
Y571246D01*
X51054Y567690D02*
X58166D01*
Y542290D02*
X51054D01*
X54610Y538734D02*
Y545846D01*
X109340Y262890D02*
X124340D01*
X116840Y255390D02*
Y270390D01*
X100330Y224440D02*
Y212440D01*
X94330Y218440D02*
X106330D01*
X100330Y159670D02*
Y147670D01*
X94330Y153670D02*
X106330D01*
X116840Y114180D02*
Y99180D01*
X109340Y106680D02*
X124340D01*
X55880Y146400D02*
Y158400D01*
X49880Y152400D02*
X61880D01*
X54610Y212440D02*
Y224440D01*
X48610Y218440D02*
X60610D01*
X208280Y81630D02*
Y93630D01*
X358220Y396240D02*
X368220D01*
X363220Y391240D02*
Y401240D01*
X342820Y396240D02*
X332820D01*
X337820Y391240D02*
Y401240D01*
X566420D02*
Y391240D01*
X591820D02*
Y401240D01*
X617220D02*
Y391240D01*
X739140Y224440D02*
Y212440D01*
X733140Y218440D02*
X745140D01*
X778860D02*
X790860D01*
X784860Y224440D02*
Y212440D01*
X746410Y152400D02*
X734410D01*
X740410Y146400D02*
Y158400D01*
X778860Y153670D02*
X790860D01*
X801370Y114180D02*
Y99180D01*
X793870Y106680D02*
X808870D01*
X836010Y87630D02*
X848010D01*
X842010Y93630D02*
Y81630D01*
X867410D02*
Y93630D01*
X861410Y87630D02*
X873410D01*
X886810D02*
X898810D01*
X925950Y106680D02*
X940950D01*
X933450Y99180D02*
Y114180D01*
X959200Y160020D02*
X971200D01*
X965200Y154020D02*
Y166020D01*
Y179420D02*
Y191420D01*
X959200Y185420D02*
X971200D01*
X965200Y203550D02*
Y215550D01*
X959200Y209550D02*
X971200D01*
X933450Y255390D02*
Y270390D01*
X925950Y262890D02*
X940950D01*
X808870D02*
X793870D01*
X801370Y255390D02*
Y270390D01*
X784860Y159670D02*
Y147670D01*
X892810Y81630D02*
Y93630D01*
M02*
