M48
;Layer_Color=9474304
;FILE_FORMAT=4:4
METRIC,TZ
;TYPE=PLATED
T1F00S00C0.7112
T2F00S00C0.8636
T3F00S00C0.9140
T4F00S00C1.0000
T5F00S00C1.2000
T6F00S00C1.5000
%
T01
X54610Y542290
Y567690
X111760
Y542290
T02
X972820Y393700
Y419100
T03
X786130Y393700
Y553700
X886130
Y393700
T04
X148590Y542290
Y567690
X173990
X199390
X224790
Y542290
X199390
X173990
X336550Y548640
X361950
X387350
X412750
X438150
X439420Y396240
X414020
X388620
X363220
X337820
X464820
X490220
X515620
X541020
X566420
X591820
X617220
X642620
X668020
X693420
X692150Y548640
X666750
X641350
X615950
X590550
X565150
X539750
X514350
X488950
X463550
T05
X867410Y87630
X892810
X965200Y160020
Y185420
Y209550
X784860Y218440
X739140
X740410Y152400
X784860Y153670
X842010Y87630
X208280
X182880
X157480
X100330Y153670
Y218440
X280670Y209550
Y185420
Y160020
X55880Y152400
X54610Y218440
T06
X933450Y106680
Y262890
X801370
Y106680
X248920
X116840
Y262890
X248920
M30
