G04 Layer_Color=2752767*
%FSLAX44Y44*%
%MOMM*%
G71*
G01*
G75*
%ADD24C,0.0508*%
%ADD25C,0.0677*%
D24*
X157480Y85598D02*
X158496Y86614D01*
X159512D01*
X158496Y87630D01*
X159512Y88646D01*
X158496D01*
X157480Y89662D01*
X156464Y88646D01*
X155448D01*
X156464Y87630D01*
X155448Y86614D01*
X156464D01*
X157480Y85598D01*
X180848Y86614D02*
X181864D01*
X182880Y85598D01*
X183896Y86614D01*
X184912D01*
X183896Y87630D01*
X184912Y88646D01*
X183896D01*
X182880Y89662D01*
X181864Y88646D01*
X180848D01*
X181864Y87630D01*
X180848Y86614D01*
X206248D02*
X207264D01*
X208280Y85598D01*
X209296Y86614D01*
X210312D01*
X209296Y87630D01*
X210312Y88646D01*
X209296D01*
X208280Y89662D01*
X207264Y88646D01*
X206248D01*
X207264Y87630D01*
X206248Y86614D01*
X248920Y104648D02*
X246888Y108712D01*
X250952D01*
X248920Y104648D01*
X278638Y159004D02*
X279654D01*
X280670Y157988D01*
X281686Y159004D01*
X282702D01*
X281686Y160020D01*
X282702Y161036D01*
X281686D01*
X280670Y162052D01*
X279654Y161036D01*
X278638D01*
X279654Y160020D01*
X278638Y159004D01*
Y184404D02*
X279654D01*
X280670Y183388D01*
X281686Y184404D01*
X282702D01*
X281686Y185420D01*
X282702Y186436D01*
X281686D01*
X280670Y187452D01*
X279654Y186436D01*
X278638D01*
X279654Y185420D01*
X278638Y184404D01*
Y208534D02*
X279654D01*
X280670Y207518D01*
X281686Y208534D01*
X282702D01*
X281686Y209550D01*
X282702Y210566D01*
X281686D01*
X280670Y211582D01*
X279654Y210566D01*
X278638D01*
X279654Y209550D01*
X278638Y208534D01*
X248920Y260858D02*
X246888Y264922D01*
X250952D01*
X248920Y260858D01*
X116840D02*
X114808Y264922D01*
X118872D01*
X116840Y260858D01*
X101346Y219456D02*
X100330Y220472D01*
X99314Y219456D01*
X98298D01*
X99314Y218440D01*
X98298Y217424D01*
X99314D01*
X100330Y216408D01*
X101346Y217424D01*
X102362D01*
X101346Y218440D01*
X102362Y219456D01*
X101346D01*
X56642D02*
X55626D01*
X54610Y220472D01*
X53594Y219456D01*
X52578D01*
X53594Y218440D01*
X52578Y217424D01*
X53594D01*
X54610Y216408D01*
X55626Y217424D01*
X56642D01*
X55626Y218440D01*
X56642Y219456D01*
X55880Y154432D02*
X54864Y153416D01*
X53848D01*
X54864Y152400D01*
X53848Y151384D01*
X54864D01*
X55880Y150368D01*
X56896Y151384D01*
X57912D01*
X56896Y152400D01*
X57912Y153416D01*
X56896D01*
X55880Y154432D01*
X98298Y154686D02*
X99314Y153670D01*
X98298Y152654D01*
X99314D01*
X100330Y151638D01*
X101346Y152654D01*
X102362D01*
X101346Y153670D01*
X102362Y154686D01*
X101346D01*
X100330Y155702D01*
X99314Y154686D01*
X98298D01*
X114808Y108712D02*
X118872D01*
X116840Y104648D01*
X114808Y108712D01*
X112776Y540258D02*
Y541274D01*
X113792D01*
Y543306D01*
X112776D01*
Y544322D01*
X110744D01*
Y543306D01*
X109728D01*
Y541274D01*
X110744D01*
Y540258D01*
X112776D01*
Y565658D02*
Y566674D01*
X113792D01*
Y568706D01*
X112776D01*
Y569722D01*
X110744D01*
Y568706D01*
X109728D01*
Y566674D01*
X110744D01*
Y565658D01*
X112776D01*
X55626D02*
Y566674D01*
X56642D01*
Y568706D01*
X55626D01*
Y569722D01*
X53594D01*
Y568706D01*
X52578D01*
Y566674D01*
X53594D01*
Y565658D01*
X55626D01*
Y544322D02*
X53594D01*
Y543306D01*
X52578D01*
Y541274D01*
X53594D01*
Y540258D01*
X55626D01*
Y541274D01*
X56642D01*
Y543306D01*
X55626D01*
Y544322D01*
X738378Y153416D02*
X739394Y152400D01*
X738378Y151384D01*
X739394D01*
X740410Y150368D01*
X741426Y151384D01*
X742442D01*
X741426Y152400D01*
X742442Y153416D01*
X741426D01*
X740410Y154432D01*
X739394Y153416D01*
X738378D01*
X782828Y152654D02*
X783844D01*
X784860Y151638D01*
X785876Y152654D01*
X786892D01*
X785876Y153670D01*
X786892Y154686D01*
X785876D01*
X784860Y155702D01*
X783844Y154686D01*
X782828D01*
X783844Y153670D01*
X782828Y152654D01*
X799338Y108712D02*
X803402D01*
X801370Y104648D01*
X799338Y108712D01*
X839978Y88646D02*
X840994Y87630D01*
X839978Y86614D01*
X840994D01*
X842010Y85598D01*
X843026Y86614D01*
X844042D01*
X843026Y87630D01*
X844042Y88646D01*
X843026D01*
X842010Y89662D01*
X840994Y88646D01*
X839978D01*
X865378D02*
X866394Y87630D01*
X865378Y86614D01*
X866394D01*
X867410Y85598D01*
X868426Y86614D01*
X869442D01*
X868426Y87630D01*
X869442Y88646D01*
X868426D01*
X867410Y89662D01*
X866394Y88646D01*
X865378D01*
X890778D02*
X891794Y87630D01*
X890778Y86614D01*
X891794D01*
X892810Y85598D01*
X893826Y86614D01*
X894842D01*
X893826Y87630D01*
X894842Y88646D01*
X893826D01*
X892810Y89662D01*
X891794Y88646D01*
X890778D01*
X933450Y104648D02*
X931418Y108712D01*
X935482D01*
X933450Y104648D01*
X963168Y159004D02*
X964184D01*
X965200Y157988D01*
X966216Y159004D01*
X967232D01*
X966216Y160020D01*
X967232Y161036D01*
X966216D01*
X965200Y162052D01*
X964184Y161036D01*
X963168D01*
X964184Y160020D01*
X963168Y159004D01*
Y184404D02*
X964184D01*
X965200Y183388D01*
X966216Y184404D01*
X967232D01*
X966216Y185420D01*
X967232Y186436D01*
X966216D01*
X965200Y187452D01*
X964184Y186436D01*
X963168D01*
X964184Y185420D01*
X963168Y184404D01*
Y208534D02*
X964184D01*
X965200Y207518D01*
X966216Y208534D01*
X967232D01*
X966216Y209550D01*
X967232Y210566D01*
X966216D01*
X965200Y211582D01*
X964184Y210566D01*
X963168D01*
X964184Y209550D01*
X963168Y208534D01*
X933450Y260858D02*
X931418Y264922D01*
X935482D01*
X933450Y260858D01*
X970788Y391668D02*
X971804Y393700D01*
X970788Y395732D01*
X972820Y394716D01*
X974852Y395732D01*
X973836Y393700D01*
X974852Y391668D01*
X972820Y392684D01*
X970788Y391668D01*
Y417068D02*
X971804Y419100D01*
X970788Y421132D01*
X972820Y420116D01*
X974852Y421132D01*
X973836Y419100D01*
X974852Y417068D01*
X972820Y418084D01*
X970788Y417068D01*
X888162Y395732D02*
Y391668D01*
X884098D01*
Y395732D01*
X888162D01*
X788162D02*
Y391668D01*
X784098D01*
Y395732D01*
X788162D01*
X799338Y264922D02*
X803402D01*
X801370Y260858D01*
X799338Y264922D01*
X785876Y219456D02*
X784860Y220472D01*
X783844Y219456D01*
X782828D01*
X783844Y218440D01*
X782828Y217424D01*
X783844D01*
X784860Y216408D01*
X785876Y217424D01*
X786892D01*
X785876Y218440D01*
X786892Y219456D01*
X785876D01*
X741172D02*
X740156D01*
X739140Y220472D01*
X738124Y219456D01*
X737108D01*
X738124Y218440D01*
X737108Y217424D01*
X738124D01*
X739140Y216408D01*
X740156Y217424D01*
X741172D01*
X740156Y218440D01*
X741172Y219456D01*
X884098Y551668D02*
Y555732D01*
X888162D01*
Y551668D01*
X884098D01*
X788162D02*
X784098D01*
Y555732D01*
X788162D01*
Y551668D01*
D25*
X466852Y396240D02*
G03*
X466852Y396240I-2032J0D01*
G01*
X492252D02*
G03*
X492252Y396240I-2032J0D01*
G01*
X517652D02*
G03*
X517652Y396240I-2032J0D01*
G01*
X543052D02*
G03*
X543052Y396240I-2032J0D01*
G01*
X568452D02*
G03*
X568452Y396240I-2032J0D01*
G01*
X593852D02*
G03*
X593852Y396240I-2032J0D01*
G01*
X619252D02*
G03*
X619252Y396240I-2032J0D01*
G01*
X644652D02*
G03*
X644652Y396240I-2032J0D01*
G01*
X670052D02*
G03*
X670052Y396240I-2032J0D01*
G01*
X695452D02*
G03*
X695452Y396240I-2032J0D01*
G01*
X694182Y548640D02*
G03*
X694182Y548640I-2032J0D01*
G01*
X668782D02*
G03*
X668782Y548640I-2032J0D01*
G01*
X643382D02*
G03*
X643382Y548640I-2032J0D01*
G01*
X617982D02*
G03*
X617982Y548640I-2032J0D01*
G01*
X592582D02*
G03*
X592582Y548640I-2032J0D01*
G01*
X567182D02*
G03*
X567182Y548640I-2032J0D01*
G01*
X541782D02*
G03*
X541782Y548640I-2032J0D01*
G01*
X516382D02*
G03*
X516382Y548640I-2032J0D01*
G01*
X490982D02*
G03*
X490982Y548640I-2032J0D01*
G01*
X465582D02*
G03*
X465582Y548640I-2032J0D01*
G01*
X440182D02*
G03*
X440182Y548640I-2032J0D01*
G01*
X414782D02*
G03*
X414782Y548640I-2032J0D01*
G01*
X389382D02*
G03*
X389382Y548640I-2032J0D01*
G01*
X363982D02*
G03*
X363982Y548640I-2032J0D01*
G01*
X338582D02*
G03*
X338582Y548640I-2032J0D01*
G01*
X226822Y567690D02*
G03*
X226822Y567690I-2032J0D01*
G01*
Y542290D02*
G03*
X226822Y542290I-2032J0D01*
G01*
X201422Y567690D02*
G03*
X201422Y567690I-2032J0D01*
G01*
Y542290D02*
G03*
X201422Y542290I-2032J0D01*
G01*
X176022Y567690D02*
G03*
X176022Y567690I-2032J0D01*
G01*
Y542290D02*
G03*
X176022Y542290I-2032J0D01*
G01*
X150622Y567690D02*
G03*
X150622Y567690I-2032J0D01*
G01*
Y542290D02*
G03*
X150622Y542290I-2032J0D01*
G01*
X339852Y396240D02*
G03*
X339852Y396240I-2032J0D01*
G01*
X365252D02*
G03*
X365252Y396240I-2032J0D01*
G01*
X390652D02*
G03*
X390652Y396240I-2032J0D01*
G01*
X416052D02*
G03*
X416052Y396240I-2032J0D01*
G01*
X441452D02*
G03*
X441452Y396240I-2032J0D01*
G01*
M02*
